# File created by Blade
# Date/Time:  Tue Apr 07 20:29:34 2015
# Frame Rate: 120.000 fps
#------------------------------------------------------
:FULLY-SPECIFIED
:DEGREES
1492
root 3.377832 33.412284 -4.039572 -15.847354 3.402790 -27.209157
Spine 11.152914 0.160512 17.623060
Head 14.689041 -12.812130 10.992574
LeftShoulder -18.806874 46.372274 10.785368
LeftArm 47.609192 -0.712255 -74.062777
LeftForeArm -0.876507 -0.000000 12.921218
LeftHand 8.129515 -0.000000 -5.784236
LeftHandThumb1 -26.253704 0.000000 33.147579
RightShoulder -4.017352 -6.782565 -12.129718
RightArm 13.289440 -9.426675 70.790030
RightForeArm 13.688532 -0.000000 20.036332
RightHand 9.345029 -0.000000 10.576914
RightHandThumb1 -24.326973 -0.000000 -32.862282
LeftUpLeg 4.574830 -5.965703 21.566083
LeftLeg 22.792891 -0.000000 -0.000000
LeftFoot -16.347898 12.185705 -10.906764
LeftToeBase -12.084883 -0.000000 0.000000
RightUpLeg -97.557739 -5.425644 6.733022
RightLeg 72.967827 -0.000000 -0.000000
RightFoot 42.574452 -7.472991 -0.288311
RightToeBase 37.948090 -0.000000 -0.000000
1493
root 3.333197 33.470835 -4.012909 -16.104568 3.806988 -28.141204
Spine 11.024244 -0.355108 18.400081
Head 14.956360 -13.051325 11.296861
LeftShoulder -18.708723 46.537006 11.080010
LeftArm 47.811841 -1.185483 -73.756114
LeftForeArm -0.960107 -0.000000 13.054296
LeftHand 8.177311 0.000000 -5.587677
LeftHandThumb1 -26.253704 0.000000 33.147579
RightShoulder -4.130485 -6.976201 -11.855405
RightArm 13.283459 -9.391651 70.679639
RightForeArm 13.742261 -0.000000 19.791736
RightHand 9.341403 -0.000000 10.724573
RightHandThumb1 -24.326973 -0.000000 -32.862282
LeftUpLeg 4.425299 -5.963301 22.747478
LeftLeg 22.881553 -0.000000 -0.000000
LeftFoot -16.359241 11.084793 -11.794234
LeftToeBase -11.181152 -0.000000 0.000000
RightUpLeg -96.870514 -5.757784 5.128038
RightLeg 72.910738 -0.000000 -0.000000
RightFoot 42.710000 -6.841539 -0.835764
RightToeBase 37.727566 -0.000000 -0.000000
1494
root 3.293392 33.525887 -3.987011 -16.321344 4.296613 -28.992139
Spine 10.809411 -0.855927 19.069469
Head 15.266541 -13.396319 11.588667
LeftShoulder -18.455907 46.598166 11.513648
LeftArm 47.901507 -1.583826 -73.393063
LeftForeArm -1.083196 -0.000000 13.188883
LeftHand 8.178313 -0.000000 -5.369700
LeftHandThumb1 -26.253704 0.000000 33.147579
RightShoulder -4.322300 -7.161922 -11.574215
RightArm 13.254107 -9.435752 70.598879
RightForeArm 13.584036 -0.000000 19.584848
RightHand 9.250731 0.000000 10.474436
RightHandThumb1 -24.326973 -0.000000 -32.862282
LeftUpLeg 4.172490 -5.987851 23.817026
LeftLeg 22.999512 -0.000000 -0.000000
LeftFoot -16.165643 10.186310 -12.321425
LeftToeBase -11.285432 -0.000000 0.000000
RightUpLeg -96.238820 -6.162943 3.443147
RightLeg 72.910045 -0.000000 -0.000000
RightFoot 42.823028 -6.306715 -1.038486
RightToeBase 37.418569 -0.000000 -0.000000
1495
root 3.252864 33.584539 -3.963037 -16.541540 4.767486 -29.875132
Spine 10.584312 -1.383326 19.777207
Head 15.584742 -13.672287 11.849632
LeftShoulder -18.319388 46.671573 11.849472
LeftArm 48.072107 -1.947635 -73.026356
LeftForeArm -1.089790 -0.000000 13.265829
LeftHand 8.161133 -0.000000 -5.172227
LeftHandThumb1 -26.253704 0.000000 33.147579
RightShoulder -4.487810 -7.317067 -11.298304
RightArm 13.215336 -9.452899 70.500028
RightForeArm 13.666758 -0.000000 19.258822
RightHand 9.524661 0.000000 10.536155
RightHandThumb1 -24.326973 -0.000000 -32.862282
LeftUpLeg 3.912842 -6.032367 24.909174
LeftLeg 23.081851 -0.000000 -0.000000
LeftFoot -15.965147 9.271147 -12.866827
LeftToeBase -11.114944 -0.000000 0.000000
RightUpLeg -95.565371 -6.520586 1.809137
RightLeg 72.936514 -0.000000 -0.000000
RightFoot 43.046721 -5.670466 -1.648804
RightToeBase 37.346538 -0.000000 -0.000000
1496
root 3.217279 33.641929 -3.935922 -16.772952 5.287530 -30.734350
Spine 10.330235 -1.946866 20.457644
Head 15.911780 -13.947927 12.102517
LeftShoulder -18.157263 46.736686 12.166973
LeftArm 48.227545 -2.326402 -72.648409
LeftForeArm -1.347654 0.000000 13.355204
LeftHand 8.202145 -0.000000 -5.005036
LeftHandThumb1 -26.253704 0.000000 33.147579
RightShoulder -4.664040 -7.431806 -11.049251
RightArm 13.093128 -9.353327 70.471160
RightForeArm 13.651692 -0.000000 19.071202
RightHand 9.393616 0.000000 10.482887
RightHandThumb1 -24.326973 -0.000000 -32.862282
LeftUpLeg 3.665768 -6.088491 25.933540
LeftLeg 23.088325 -0.000000 -0.000000
LeftFoot -15.709975 8.481850 -13.219820
LeftToeBase -11.010974 -0.000000 0.000000
RightUpLeg -94.856547 -6.906063 0.073946
RightLeg 73.002934 -0.000000 -0.000000
RightFoot 43.153681 -5.047171 -1.974173
RightToeBase 36.968323 -0.000000 -0.000000
1497
root 3.187405 33.698789 -3.908860 -16.999486 5.822279 -31.584750
Spine 10.038713 -2.553159 21.149287
Head 16.266643 -14.208855 12.261545
LeftShoulder -18.021673 46.801152 12.441066
LeftArm 48.377309 -2.653216 -72.256633
LeftForeArm -1.585868 -0.000000 13.428755
LeftHand 8.196083 -0.000000 -4.990812
LeftHandThumb1 -26.253704 0.000000 33.147579
RightShoulder -4.794835 -7.519594 -10.839379
RightArm 12.935991 -9.281100 70.459754
RightForeArm 13.491271 -0.000000 18.836978
RightHand 9.486844 -0.000000 10.309642
RightHandThumb1 -24.326973 -0.000000 -32.862282
LeftUpLeg 3.445702 -6.247738 26.884742
LeftLeg 23.001863 -0.000000 -0.000000
LeftFoot -15.500950 7.859762 -13.547216
LeftToeBase -10.791876 -0.000000 0.000000
RightUpLeg -94.126177 -7.281498 -1.656127
RightLeg 73.125721 -0.000000 -0.000000
RightFoot 43.204362 -4.533396 -2.344660
RightToeBase 36.690919 -0.000000 -0.000000
1498
root 3.165189 33.754838 -3.880414 -17.271941 6.341293 -32.433461
Spine 9.780882 -3.145207 21.875721
Head 16.609759 -14.452155 12.370880
LeftShoulder -17.865415 46.808273 12.704762
LeftArm 48.479149 -2.904876 -71.827117
LeftForeArm -1.924389 -0.000000 13.545363
LeftHand 8.151413 -0.000000 -4.845717
LeftHandThumb1 -26.253704 0.000000 33.147579
RightShoulder -4.950159 -7.647244 -10.662651
RightArm 12.780198 -9.092074 70.444363
RightForeArm 13.625704 -0.000000 18.660062
RightHand 9.479906 -0.000000 10.427466
RightHandThumb1 -24.326973 -0.000000 -32.862282
LeftUpLeg 3.264201 -6.479884 27.794800
LeftLeg 22.925147 -0.000000 -0.000000
LeftFoot -15.329729 7.278927 -13.894128
LeftToeBase -10.525763 -0.000000 0.000000
RightUpLeg -93.335987 -7.638341 -3.319932
RightLeg 73.252154 -0.000000 -0.000000
RightFoot 43.267315 -4.210962 -2.611019
RightToeBase 36.967832 -0.000000 -0.000000
1499
root 3.144482 33.811017 -3.855875 -17.535427 6.792302 -33.326516
Spine 9.522262 -3.694317 22.689070
Head 16.912338 -14.683437 12.443054
LeftShoulder -17.719854 46.834697 12.955413
LeftArm 48.727405 -3.431090 -71.813608
LeftForeArm -1.892826 0.000000 13.458388
LeftHand 8.254091 0.000000 -5.101639
LeftHandThumb1 -26.253704 0.000000 33.147579
RightShoulder -5.136173 -7.787889 -10.535977
RightArm 12.638566 -8.886964 70.472962
RightForeArm 13.460648 -0.000000 18.562047
RightHand 9.231080 0.000000 10.682261
RightHandThumb1 -24.326973 -0.000000 -32.862282
LeftUpLeg 3.103394 -6.696743 28.745752
LeftLeg 22.803808 -0.000000 -0.000000
LeftFoot -15.194776 6.726007 -14.233590
LeftToeBase -10.229162 -0.000000 0.000000
RightUpLeg -92.533000 -7.909818 -4.885542
RightLeg 73.377070 -0.000000 -0.000000
RightFoot 43.277609 -3.957185 -2.723758
RightToeBase 36.977911 -0.000000 -0.000000
1500
root 3.129063 33.864544 -3.829622 -17.821255 7.279441 -34.200671
Spine 9.259847 -4.297964 23.496677
Head 17.188625 -14.884639 12.450159
LeftShoulder -17.599078 46.824669 13.133711
LeftArm 48.736373 -3.437543 -71.141996
LeftForeArm -2.463691 0.000000 13.777159
LeftHand 8.026784 -0.000000 -4.603295
LeftHandThumb1 -26.253704 0.000000 33.147579
RightShoulder -5.323948 -7.940892 -10.433703
RightArm 12.574852 -8.696828 70.480564
RightForeArm 13.622434 0.000000 18.319660
RightHand 9.461631 0.000000 10.621594
RightHandThumb1 -24.326973 -0.000000 -32.862282
LeftUpLeg 2.981535 -6.943397 29.649729
LeftLeg 22.588716 -0.000000 -0.000000
LeftFoot -15.069011 6.198824 -14.500921
LeftToeBase -9.841930 -0.000000 0.000000
RightUpLeg -91.689259 -8.211154 -6.422128
RightLeg 73.518981 -0.000000 -0.000000
RightFoot 43.272149 -3.693181 -2.814981
RightToeBase 37.343282 -0.000000 -0.000000
